{
    "asset" : {
        "generator" : "Khronos glTF Blender I/O v1.3.48",
        "version" : "2.0"
    },
    "scene" : 0,
    "scenes" : [
        {
            "name" : "Scene",
            "nodes" : [
                0,
                1
            ]
        }
    ],
    "nodes" : [
        {
            "mesh" : 0,
            "name" : "Cottage Combined"
        },
        {
            "mesh" : 1,
            "name" : "Cottage Fur Roof"
        }
    ],
    "materials" : [
        {
            "emissiveFactor" : [
                0,
                0,
                0
            ],
            "name" : "Cottage Mat",
            "normalTexture" : {
                "index" : 0,
                "texCoord" : 0
            },
            "pbrMetallicRoughness" : {
                "baseColorTexture" : {
                    "index" : 1,
                    "texCoord" : 0
                },
                "metallicFactor" : 0,
                "metallicRoughnessTexture" : {
                    "index" : 2,
                    "texCoord" : 0
                }
            }
        }
    ],
    "meshes" : [
        {
            "name" : "Cube.170",
            "primitives" : [
                {
                    "attributes" : {
                        "POSITION" : 0,
                        "NORMAL" : 1,
                        "TEXCOORD_0" : 2
                    },
                    "indices" : 3,
                    "material" : 0
                }
            ]
        },
        {
            "extras" : {
                "targetNames" : [
                    "Key 1"
                ]
            },
            "name" : "Cube.031",
            "primitives" : [
                {
                    "attributes" : {
                        "POSITION" : 4,
                        "NORMAL" : 5,
                        "TEXCOORD_0" : 6
                    },
                    "indices" : 7,
                    "material" : 0,
                    "targets" : [
                        {
                            "POSITION" : 8,
                            "NORMAL" : 9
                        }
                    ]
                }
            ],
            "weights" : [
                0
            ]
        }
    ],
    "textures" : [
        {
            "source" : 0
        },
        {
            "source" : 1
        },
        {
            "source" : 2
        }
    ],
    "images" : [
        {
            "mimeType" : "image/png",
            "name" : "Cottage_Nor",
            "uri" : "Cottage_Nor.png"
        },
        {
            "mimeType" : "image/png",
            "name" : "Cottage_Alb",
            "uri" : "Cottage_Alb.png"
        },
        {
            "mimeType" : "image/png",
            "name" : "Cottage_Rough",
            "uri" : "Cottage_Rough.png"
        }
    ],
    "accessors" : [
        {
            "bufferView" : 0,
            "componentType" : 5126,
            "count" : 7303,
            "max" : [
                4.543636798858643,
                7.356256484985352,
                1.8922041654586792
            ],
            "min" : [
                -4.543636798858643,
                -4.656612873077393e-10,
                -3.298825979232788
            ],
            "type" : "VEC3"
        },
        {
            "bufferView" : 1,
            "componentType" : 5126,
            "count" : 7303,
            "type" : "VEC3"
        },
        {
            "bufferView" : 2,
            "componentType" : 5126,
            "count" : 7303,
            "type" : "VEC2"
        },
        {
            "bufferView" : 3,
            "componentType" : 5123,
            "count" : 23622,
            "type" : "SCALAR"
        },
        {
            "bufferView" : 4,
            "componentType" : 5126,
            "count" : 936,
            "max" : [
                4.1763410568237305,
                6.30999755859375,
                1.8922041654586792
            ],
            "min" : [
                -4.1763410568237305,
                2.6562535762786865,
                -1.8922041654586792
            ],
            "type" : "VEC3"
        },
        {
            "bufferView" : 5,
            "componentType" : 5126,
            "count" : 936,
            "type" : "VEC3"
        },
        {
            "bufferView" : 6,
            "componentType" : 5126,
            "count" : 936,
            "type" : "VEC2"
        },
        {
            "bufferView" : 7,
            "componentType" : 5123,
            "count" : 2904,
            "type" : "SCALAR"
        },
        {
            "bufferView" : 8,
            "componentType" : 5126,
            "count" : 936,
            "max" : [
                0.11801290512084961,
                0.2785172462463379,
                0.3954068422317505
            ],
            "min" : [
                -0.11801290512084961,
                -0.3091726303100586,
                -0.3954068422317505
            ],
            "type" : "VEC3"
        },
        {
            "bufferView" : 9,
            "componentType" : 5126,
            "count" : 936,
            "type" : "VEC3"
        }
    ],
    "bufferViews" : [
        {
            "buffer" : 0,
            "byteLength" : 87636,
            "byteOffset" : 0
        },
        {
            "buffer" : 0,
            "byteLength" : 87636,
            "byteOffset" : 87636
        },
        {
            "buffer" : 0,
            "byteLength" : 58424,
            "byteOffset" : 175272
        },
        {
            "buffer" : 0,
            "byteLength" : 47244,
            "byteOffset" : 233696
        },
        {
            "buffer" : 0,
            "byteLength" : 11232,
            "byteOffset" : 280940
        },
        {
            "buffer" : 0,
            "byteLength" : 11232,
            "byteOffset" : 292172
        },
        {
            "buffer" : 0,
            "byteLength" : 7488,
            "byteOffset" : 303404
        },
        {
            "buffer" : 0,
            "byteLength" : 5808,
            "byteOffset" : 310892
        },
        {
            "buffer" : 0,
            "byteLength" : 11232,
            "byteOffset" : 316700
        },
        {
            "buffer" : 0,
            "byteLength" : 11232,
            "byteOffset" : 327932
        }
    ],
    "buffers" : [
        {
            "byteLength" : 339164,
            "uri" : "Cottage2.bin"
        }
    ]
}
