# Blender v2.90.1 OBJ File: 'mossy_log.blend'
# www.blender.org
o Moss_MossMesh
v -2.000000 0.272192 -0.353911
v 2.000000 0.272192 -0.353911
v -1.905005 0.206629 -0.329610
v 2.021631 0.202355 -0.351096
v -2.044343 0.201523 0.355280
v 1.835134 0.209190 0.316737
v -2.000000 0.272192 0.353911
v 2.000000 0.272193 0.353911
v -1.979876 0.340499 0.343403
v 2.158835 0.347058 0.376373
v -1.693179 0.385573 0.273724
v 2.102109 0.414968 0.344692
v -1.516940 0.420613 0.245538
v 1.964546 0.465115 0.288729
v -1.582505 0.495888 0.255529
v 2.061089 0.530559 0.258366
v -2.025274 0.570406 0.199260
v 2.045061 0.573497 0.201325
v -2.063095 0.610113 0.139971
v 2.011652 0.601186 0.136273
v -2.101341 0.637973 0.072758
v 1.982366 0.616054 0.068398
v -1.999999 0.626103 -0.000000
v 2.000001 0.626104 -0.000000
v -1.864530 0.594345 -0.064080
v 2.118620 0.641157 -0.073392
v -1.910214 0.583581 -0.128982
v 2.111963 0.618594 -0.143484
v -2.035530 0.572007 -0.200330
v 2.112993 0.584106 -0.208414
v -2.145309 0.541744 -0.269554
v 2.113312 0.537495 -0.265304
v -2.170698 0.486627 -0.320927
v 2.002818 0.469108 -0.294707
v -2.209101 0.422658 -0.363260
v 1.904915 0.400793 -0.310470
v -2.038534 0.342648 -0.354210
v 1.932881 0.338777 -0.334745
v -1.500000 0.272192 -0.359357
v -1.000000 0.272192 -0.359976
v -0.500000 0.272192 -0.396714
v 0.000000 0.272192 -0.353911
v 0.500000 0.272192 -0.316563
v 1.000000 0.272192 -0.336390
v 1.500000 0.272192 -0.327911
v 1.500000 0.202400 -0.350869
v 1.000000 0.196687 -0.379593
v 0.500000 0.200464 -0.360605
v 0.000000 0.200139 -0.362238
v -0.500000 0.193233 -0.396956
v -1.000000 0.201728 -0.354247
v -1.500000 0.205627 -0.334646
v 1.422479 0.210576 0.309765
v 1.000000 0.206798 0.328760
v 0.500000 0.199472 0.365591
v 0.000000 0.191363 0.406359
v -0.500000 0.195291 0.386612
v -1.000000 0.201798 0.353895
v -1.402277 0.203880 0.343427
v 1.448859 0.272192 0.333481
v 1.000000 0.272192 0.312727
v 0.500000 0.272192 0.325551
v -0.000000 0.272192 0.353911
v -0.500000 0.272192 0.340190
v -1.000000 0.272192 0.344887
v -1.333044 0.272192 0.341136
v 1.500000 0.341176 0.346802
v 1.000000 0.331440 0.297856
v 0.500000 0.334755 0.314522
v -0.000000 0.332404 0.302703
v -0.500000 0.331090 0.296096
v -1.000000 0.335309 0.317307
v -1.287179 0.336283 0.322203
v 1.500000 0.390281 0.285090
v 1.000000 0.398792 0.305639
v 0.500000 0.402983 0.315755
v -0.000000 0.390697 0.286096
v -0.500000 0.395525 0.297752
v -1.000000 0.395435 0.297533
v -1.249201 0.385680 0.273984
v 1.500000 0.439749 0.250766
v 1.000000 0.447569 0.262470
v 0.500000 0.470286 0.296468
v -0.000000 0.463166 0.285812
v -0.500000 0.455590 0.274473
v -1.000000 0.446542 0.260932
v -1.281586 0.426926 0.231576
v 1.500000 0.509390 0.237198
v 1.000000 0.500000 0.227808
v 0.500000 0.535075 0.262882
v -0.000000 0.531343 0.259150
v -0.500000 0.546461 0.274268
v -1.000000 0.537205 0.265013
v -1.306786 0.496919 0.224727
v 1.500000 0.586097 0.209744
v 1.000000 0.584346 0.208574
v 0.500000 0.597805 0.217567
v -0.000000 0.612117 0.227130
v -0.500000 0.625316 0.235950
v -1.000000 0.591269 0.213200
v -1.356672 0.553983 0.188286
v 1.500000 0.617700 0.143114
v 1.000000 0.637893 0.151478
v 0.500000 0.673322 0.166153
v -0.000000 0.674935 0.166821
v -0.500000 0.626086 0.146587
v -1.000000 0.603015 0.137031
v -1.412890 0.576405 0.126009
v 1.500000 0.616390 0.068465
v 1.000000 0.640104 0.073182
v 0.500000 0.696457 0.084390
v -0.000000 0.686454 0.082400
v -0.500000 0.630337 0.071239
v -1.000000 0.600260 0.065257
v -1.465296 0.595480 0.064306
v 1.500000 0.588152 -0.000000
v 1.000000 0.609636 -0.000000
v 0.500000 0.647238 -0.000000
v -0.000000 0.626103 -0.000000
v -0.500000 0.574611 -0.000000
v -1.000000 0.573869 -0.000000
v -1.500000 0.569613 -0.000000
v 1.500000 0.602720 -0.065747
v 1.000000 0.590666 -0.063349
v 0.500000 0.615847 -0.068358
v -0.000000 0.581136 -0.061454
v -0.500000 0.517603 -0.048817
v -1.000000 0.524130 -0.050115
v -1.500000 0.531215 -0.051524
v 1.500000 0.588309 -0.130940
v 1.000000 0.548114 -0.114291
v 0.500000 0.589709 -0.131520
v -0.000000 0.572029 -0.124197
v -0.500000 0.517750 -0.101714
v -1.000000 0.519544 -0.102457
v -1.500000 0.550140 -0.115130
v 1.500000 0.575662 -0.202773
v 1.000000 0.561040 -0.193002
v 0.500000 0.591027 -0.213039
v -0.000000 0.570772 -0.199505
v -0.500000 0.507488 -0.157220
v -1.000000 0.509131 -0.158317
v -1.500000 0.538069 -0.177653
v 1.500000 0.533675 -0.261484
v 1.000000 0.526173 -0.253982
v 0.500000 0.542534 -0.270342
v -0.000000 0.538199 -0.266007
v -0.500000 0.497314 -0.225123
v -1.000000 0.480153 -0.207962
v -1.500000 0.492298 -0.220106
v 1.500000 0.454879 -0.273411
v 1.000000 0.469474 -0.295254
v 0.500000 0.469860 -0.295831
v -0.000000 0.477716 -0.307589
v -0.500000 0.457473 -0.277293
v -1.000000 0.450352 -0.266637
v -1.500000 0.455334 -0.274092
v 1.500000 0.396678 -0.300536
v 1.000000 0.411770 -0.336971
v 0.500000 0.409471 -0.331422
v -0.000000 0.410862 -0.334780
v -0.500000 0.407926 -0.327691
v -1.000000 0.411456 -0.336215
v -1.500000 0.411705 -0.336815
v 1.500000 0.333542 -0.308423
v 1.000000 0.334133 -0.311399
v 0.500000 0.334453 -0.313005
v -0.000000 0.335018 -0.315847
v -0.500000 0.345682 -0.369463
v -1.000000 0.344735 -0.364699
v -1.500000 0.345260 -0.367343
v 1.973086 0.272192 -0.352511
v 1.993552 0.202358 -0.351084
v 1.812922 0.209264 0.316362
v 1.970333 0.272193 0.352811
v 2.123371 0.346741 0.374781
v 2.069699 0.413639 0.341483
v 1.939540 0.463750 0.286685
v 2.030886 0.529420 0.257227
v 2.015721 0.574175 0.201778
v 1.984110 0.602075 0.136641
v 1.956401 0.616072 0.068402
v 1.973087 0.624061 -0.000000
v 2.085321 0.639088 -0.072980
v 2.079022 0.616964 -0.142809
v 2.079997 0.583652 -0.208111
v 2.080298 0.537289 -0.265098
v 1.975752 0.468343 -0.293560
v 1.883119 0.400571 -0.309935
v 1.909580 0.338495 -0.333328
v -1.885044 0.206579 -0.329858
v -2.012697 0.201639 0.354696
v -1.967128 0.272192 0.353281
v -1.945735 0.340292 0.342358
v -1.671296 0.385578 0.273736
v -1.505340 0.420924 0.244850
v -1.568915 0.495939 0.254010
v -1.992321 0.569597 0.198719
v -2.031049 0.608452 0.139283
v -2.069993 0.635879 0.072342
v -1.975356 0.623319 -0.000000
v -1.846564 0.591233 -0.063462
v -1.889996 0.581933 -0.128299
v -2.009135 0.570335 -0.199213
v -2.113503 0.539307 -0.267117
v -2.137641 0.485085 -0.318619
v -2.174151 0.422118 -0.361956
v -2.011992 0.342777 -0.354857
v -1.975357 0.272192 -0.354179
vt 0.911125 0.189576
vt 0.911031 0.180805
vt 0.933607 0.173500
vt 0.933723 0.182605
vt 0.515896 0.243890
vt 0.515753 0.236591
vt 0.538480 0.181729
vt 0.538540 0.191552
vt 0.563777 0.128544
vt 0.563633 0.140391
vt 0.588297 0.148171
vt 0.588088 0.159027
vt 0.610998 0.195398
vt 0.610810 0.203676
vt 0.634420 0.164103
vt 0.634241 0.173935
vt 0.657507 0.169880
vt 0.657363 0.179486
vt 0.680651 0.180954
vt 0.680651 0.189948
vt 0.703297 0.190343
vt 0.703504 0.198833
vt 0.725538 0.183651
vt 0.725841 0.192454
vt 0.748038 0.143815
vt 0.748335 0.154679
vt 0.772041 0.145510
vt 0.772231 0.156265
vt 0.796000 0.144791
vt 0.796165 0.155565
vt 0.820019 0.144318
vt 0.820124 0.155122
vt 0.844616 0.180582
vt 0.844739 0.189495
vt 0.867683 0.212736
vt 0.867802 0.219856
vt 0.889040 0.203143
vt 0.889158 0.210716
vt 0.446329 0.762337
vt 0.435905 0.598182
vt 0.459602 0.597249
vt 0.468177 0.749199
vt 0.432484 0.435535
vt 0.456091 0.435465
vt 0.434690 0.271967
vt 0.460211 0.272785
vt 0.442094 0.108395
vt 0.465676 0.110332
vt 0.908623 0.833059
vt 0.904627 0.670935
vt 0.924748 0.670310
vt 0.932653 0.832847
vt 0.898716 0.508443
vt 0.920574 0.507480
vt 0.891051 0.344472
vt 0.912116 0.343775
vt 0.424990 0.815466
vt 0.412194 0.599257
vt 0.408871 0.435683
vt 0.410153 0.271370
vt 0.416918 0.108392
vt 0.883217 0.833729
vt 0.879719 0.671753
vt 0.872180 0.509741
vt 0.870146 0.344968
vt 0.400147 0.805122
vt 0.387337 0.599929
vt 0.382701 0.435690
vt 0.386965 0.270830
vt 0.393639 0.107394
vt 0.859714 0.834248
vt 0.857204 0.672474
vt 0.849006 0.510285
vt 0.849018 0.345277
vt 0.375939 0.798551
vt 0.366049 0.600524
vt 0.361022 0.435764
vt 0.365425 0.270498
vt 0.369917 0.106420
vt 0.835813 0.834585
vt 0.832595 0.673393
vt 0.825972 0.510910
vt 0.822774 0.345592
vt 0.351405 0.765642
vt 0.345745 0.601507
vt 0.341975 0.435904
vt 0.342964 0.271020
vt 0.346060 0.106620
vt 0.811452 0.835239
vt 0.808717 0.674093
vt 0.802677 0.511555
vt 0.798964 0.345972
vt 0.328181 0.727694
vt 0.324934 0.601641
vt 0.323163 0.435783
vt 0.324575 0.271313
vt 0.321723 0.108130
vt 0.787164 0.836267
vt 0.782740 0.674649
vt 0.776612 0.512116
vt 0.774976 0.346638
vt 0.307134 0.714154
vt 0.303306 0.600923
vt 0.305593 0.435512
vt 0.307416 0.271737
vt 0.301261 0.109065
vt 0.766677 0.837041
vt 0.760952 0.675363
vt 0.754901 0.512683
vt 0.753000 0.347099
vt 0.287863 0.755716
vt 0.282222 0.602253
vt 0.281928 0.435268
vt 0.283212 0.271180
vt 0.276637 0.108580
vt 0.741926 0.837198
vt 0.736919 0.676163
vt 0.732991 0.513336
vt 0.730874 0.347884
vt 0.266827 0.785923
vt 0.258738 0.591916
vt 0.258659 0.434989
vt 0.254094 0.270627
vt 0.243619 0.107932
vt 0.708834 0.837400
vt 0.705908 0.677188
vt 0.706803 0.514425
vt 0.706502 0.348503
vt 0.243920 0.774315
vt 0.236868 0.575155
vt 0.234911 0.434809
vt 0.229757 0.271441
vt 0.216197 0.109497
vt 0.680972 0.837867
vt 0.679123 0.677753
vt 0.680611 0.514669
vt 0.681993 0.348840
vt 0.221005 0.762611
vt 0.214187 0.557187
vt 0.209745 0.434620
vt 0.201171 0.272983
vt 0.188342 0.113011
vt 0.652494 0.838074
vt 0.650119 0.676990
vt 0.654608 0.514115
vt 0.657807 0.348638
vt 0.188411 0.637535
vt 0.188390 0.540785
vt 0.185510 0.435877
vt 0.173375 0.275195
vt 0.160135 0.114820
vt 0.624264 0.837916
vt 0.625458 0.676512
vt 0.626030 0.513060
vt 0.631160 0.348178
vt 0.160598 0.611100
vt 0.163030 0.533895
vt 0.156095 0.439379
vt 0.144154 0.277314
vt 0.136497 0.116101
vt 0.600346 0.837848
vt 0.602001 0.676060
vt 0.605164 0.512685
vt 0.607880 0.348166
vt 0.146725 0.666895
vt 0.142583 0.523938
vt 0.135563 0.440744
vt 0.123567 0.278764
vt 0.113119 0.117591
vt 0.576714 0.838049
vt 0.579449 0.675533
vt 0.583690 0.512344
vt 0.588220 0.347737
vt 0.122431 0.757007
vt 0.119825 0.538044
vt 0.114887 0.442375
vt 0.102891 0.279984
vt 0.093422 0.118719
vt 0.557000 0.837977
vt 0.557297 0.675258
vt 0.561392 0.511460
vt 0.562497 0.346102
vt 0.099832 0.764182
vt 0.097928 0.554204
vt 0.092361 0.443885
vt 0.079217 0.281678
vt 0.067892 0.120053
vt 0.531283 0.838074
vt 0.536656 0.674908
vt 0.541262 0.511065
vt 0.539764 0.363320
vt 0.076701 0.779324
vt 0.075859 0.577827
vt 0.069259 0.445350
vt 0.050142 0.283556
vt 0.036679 0.121770
vt 0.499854 0.838025
vt 0.509566 0.674658
vt 0.519182 0.511046
vt 0.518352 0.372510
vt 0.482433 0.596482
vt 0.488953 0.719181
vt 0.479015 0.435567
vt 0.485762 0.273554
vt 0.489309 0.111375
vt 0.952070 0.669561
vt 0.956256 0.832264
vt 0.948981 0.506264
vt 0.936062 0.342951
vt 0.468642 0.757053
vt 0.489309 0.725546
vt 0.076733 0.789741
vt 0.099894 0.774986
vt 0.122497 0.768188
vt 0.146903 0.674078
vt 0.160430 0.615638
vt 0.188037 0.643463
vt 0.221530 0.773191
vt 0.244250 0.784362
vt 0.267122 0.795624
vt 0.288113 0.763373
vt 0.307356 0.719969
vt 0.328322 0.734147
vt 0.351669 0.774114
vt 0.376424 0.808734
vt 0.400730 0.815653
vt 0.425621 0.826523
vt 0.446996 0.770780
vn -0.0408 0.1548 -0.9871
vn -0.0349 0.0405 -0.9986
vn -0.0256 -0.0381 -0.9989
vn -0.0256 0.0385 -0.9989
vn -0.0265 -0.4098 0.9118
vn -0.0260 -0.4541 0.8905
vn -0.0378 -0.2411 0.9698
vn -0.0331 -0.3209 0.9465
vn -0.0656 0.1991 0.9778
vn -0.0600 0.1310 0.9895
vn -0.0793 0.4231 0.9026
vn -0.0866 0.5750 0.8135
vn -0.0871 0.5539 0.8280
vn -0.0863 0.4875 0.8688
vn -0.0325 0.7065 0.7069
vn -0.0434 0.5884 0.8074
vn 0.0039 0.8481 0.5298
vn 0.0089 0.8146 0.5799
vn 0.0263 0.9489 0.3145
vn 0.0246 0.9601 0.2784
vn -0.0089 0.9867 0.1625
vn -0.0102 0.9988 0.0471
vn -0.0573 0.9927 0.1059
vn -0.0525 0.9956 0.0768
vn -0.0615 0.9788 -0.1952
vn -0.0638 0.9941 -0.0872
vn -0.0469 0.9238 -0.3799
vn -0.0466 0.9412 -0.3346
vn -0.0238 0.8344 -0.5506
vn -0.0239 0.8596 -0.5104
vn -0.0169 0.6923 -0.7213
vn -0.0204 0.6094 -0.7926
vn -0.0295 0.3973 -0.9172
vn -0.0326 0.3021 -0.9527
vn -0.0412 0.3073 -0.9507
vn -0.0419 0.3062 -0.9510
vn -0.0521 0.2645 -0.9630
vn -0.0501 0.2776 -0.9594
vn -0.0032 0.0507 -0.9987
vn -0.0002 0.1086 -0.9941
vn -0.0120 -0.1819 -0.9832
vn -0.0146 -0.2066 -0.9783
vn -0.0080 0.2437 -0.9698
vn -0.0352 -0.0476 -0.9982
vn 0.0258 0.3114 -0.9499
vn 0.0119 0.1522 -0.9883
vn 0.0468 0.1713 -0.9841
vn 0.0616 0.2904 -0.9549
vn 0.0059 0.0058 -0.9999
vn 0.0064 0.3495 -0.9369
vn 0.0070 0.0418 -0.9991
vn -0.0017 0.3751 -0.9269
vn -0.0132 0.1810 -0.9834
vn -0.0097 0.2935 -0.9559
vn 0.0377 0.2907 -0.9560
vn 0.0220 0.5590 -0.8289
vn 0.0032 0.6562 -0.7546
vn 0.0008 0.5203 -0.8539
vn 0.0069 0.2425 -0.9701
vn 0.0040 0.1274 -0.9918
vn 0.0251 0.1789 -0.9836
vn 0.0048 0.2490 -0.9685
vn 0.0776 0.6669 -0.7411
vn 0.0472 0.7918 -0.6089
vn -0.0016 0.8408 -0.5413
vn -0.0450 0.7315 -0.6803
vn -0.0280 0.5358 -0.8438
vn 0.0108 0.4752 -0.8798
vn 0.0247 0.4719 -0.8813
vn 0.0040 0.3793 -0.9252
vn 0.0938 0.7764 -0.6232
vn 0.0659 0.7906 -0.6088
vn 0.0054 0.8655 -0.5009
vn -0.0703 0.8755 -0.4779
vn -0.0619 0.7599 -0.6471
vn 0.0153 0.6619 -0.7494
vn 0.0181 0.6458 -0.7633
vn -0.0134 0.6007 -0.7993
vn 0.0874 0.8874 -0.4525
vn 0.0739 0.8985 -0.4328
vn 0.0257 0.9420 -0.3347
vn -0.0657 0.9731 -0.2208
vn -0.0799 0.9673 -0.2408
vn 0.0152 0.9611 -0.2757
vn 0.0117 0.9638 -0.2662
vn -0.0335 0.9249 -0.3786
vn 0.1029 0.9737 -0.2030
vn 0.0767 0.9947 -0.0690
vn 0.0282 0.9970 -0.0718
vn -0.0576 0.9936 -0.0973
vn -0.0840 0.9904 -0.1092
vn 0.0116 0.9840 -0.1775
vn 0.0068 0.9739 -0.2267
vn -0.0514 0.9654 -0.2557
vn 0.1306 0.9672 -0.2179
vn 0.0761 0.9672 -0.2424
vn 0.0142 0.9341 -0.3568
vn -0.0524 0.9121 -0.4064
vn -0.0824 0.9143 -0.3966
vn 0.0058 0.9096 -0.4153
vn 0.0211 0.9387 -0.3439
vn -0.0439 0.9882 -0.1468
vn 0.1101 0.9702 -0.2155
vn 0.0604 0.9072 -0.4163
vn -0.0060 0.8167 -0.5770
vn -0.0480 0.7699 -0.6363
vn -0.0622 0.8092 -0.5842
vn 0.0159 0.8834 -0.4682
vn 0.0476 0.9494 -0.3103
vn -0.0139 0.9944 -0.1046
vn 0.0754 0.9892 0.1253
vn 0.0304 0.9988 -0.0382
vn -0.0316 0.9803 -0.1948
vn -0.0697 0.9603 -0.2700
vn -0.0588 0.9728 -0.2238
vn 0.0367 0.9853 -0.1665
vn 0.0666 0.9820 -0.1765
vn 0.0162 0.9933 -0.1139
vn 0.0522 0.9112 0.4086
vn -0.0020 0.9587 0.2845
vn -0.0610 0.9904 0.1244
vn -0.0653 0.9875 0.1434
vn -0.0350 0.9215 0.3866
vn 0.0407 0.8621 0.5051
vn 0.0553 0.9157 0.3979
vn 0.0288 0.9614 0.2735
vn 0.0424 0.8201 0.5707
vn -0.0365 0.8270 0.5610
vn -0.0940 0.8383 0.5370
vn -0.0311 0.7923 0.6093
vn 0.0064 0.6328 0.7743
vn 0.0345 0.5408 0.8404
vn 0.0299 0.5553 0.8311
vn 0.0062 0.6830 0.7304
vn 0.0708 0.3539 0.9326
vn -0.0439 0.3280 0.9436
vn -0.0876 0.2977 0.9506
vn -0.0089 0.2873 0.9578
vn 0.0077 0.3663 0.9304
vn 0.0351 0.4479 0.8934
vn 0.0343 0.3894 0.9204
vn -0.0242 0.3901 0.9204
vn 0.0511 0.3638 0.9300
vn -0.0361 0.3552 0.9340
vn -0.0711 0.2797 0.9574
vn -0.0087 0.2011 0.9795
vn -0.0140 0.2244 0.9744
vn 0.0202 0.3865 0.9220
vn 0.0445 0.4932 0.8688
vn -0.0336 0.4861 0.8732
vn 0.0126 0.6878 0.7258
vn -0.0461 0.6304 0.7748
vn -0.0367 0.4531 0.8907
vn 0.0026 0.2313 0.9728
vn -0.0200 0.1387 0.9901
vn -0.0019 0.1707 0.9853
vn 0.0227 0.3740 0.9271
vn -0.0407 0.5631 0.8253
vn 0.0209 0.5323 0.8462
vn 0.0032 0.5084 0.8611
vn 0.0025 0.3884 0.9215
vn 0.0089 0.3590 0.9333
vn -0.0105 0.3392 0.9406
vn 0.0067 0.1816 0.9833
vn -0.0112 0.1527 0.9882
vn -0.0525 0.2120 0.9758
vn 0.0220 0.0914 0.9955
vn 0.0042 0.1613 0.9869
vn -0.0041 0.3268 0.9451
vn -0.0106 0.5072 0.8618
vn 0.0066 0.5325 0.8464
vn 0.0355 0.3904 0.9199
vn -0.0008 0.1435 0.9896
vn -0.0412 -0.1529 0.9874
vn 0.0188 0.0088 0.9998
vn 0.0094 0.0309 0.9995
vn -0.0217 0.2246 0.9742
vn -0.0252 0.4458 0.8948
vn 0.0139 0.5236 0.8518
vn 0.0494 0.4491 0.8921
vn 0.0216 0.1655 0.9860
vn -0.0113 -0.1929 0.9811
vn -0.0159 -0.2866 -0.9579
vn -0.0112 -0.3559 -0.9344
vn -0.0504 -0.1268 -0.9906
vn -0.0013 0.0100 -0.9999
vn 0.0574 0.2004 -0.9780
vn 0.0023 0.4285 -0.9035
vn -0.0001 0.4630 -0.8863
vn 0.0033 0.2855 -0.9583
vn -0.0164 -0.0988 -0.9950
vn -0.0112 -0.3614 -0.9323
vn 0.0188 0.0077 0.9998
vn 0.0212 0.0605 0.9979
vn 0.0245 0.2372 0.9711
vn 0.0135 0.7963 0.6047
vn 0.0468 0.3361 0.9406
vn 0.0561 0.6025 0.7961
vn 0.0422 0.8375 0.5448
vn 0.0551 0.9084 0.4144
vn 0.0718 0.9752 0.2091
vn 0.0941 0.9928 -0.0737
vn 0.1331 0.9669 -0.2174
vn 0.0922 0.9564 -0.2771
vn 0.0901 0.8688 -0.4868
vn 0.0950 0.7082 -0.6995
vn 0.0742 0.5826 -0.8094
vn 0.0490 0.3786 -0.9243
vn 0.0021 -0.0618 -0.9981
s 1
f 172/1/1 2/2/2 4/3/3 173/4/4
f 174/5/5 6/6/6 8/7/7 175/8/8
f 175/8/8 8/7/7 10/9/9 176/10/10
f 176/10/10 10/9/9 12/11/11 177/12/12
f 177/12/12 12/11/11 14/13/13 178/14/14
f 178/14/14 14/13/13 16/15/15 179/16/16
f 179/16/16 16/15/15 18/17/17 180/18/18
f 180/18/18 18/17/17 20/19/19 181/20/20
f 181/20/20 20/19/19 22/21/21 182/22/22
f 182/22/22 22/21/21 24/23/23 183/24/24
f 183/24/24 24/23/23 26/25/25 184/26/26
f 184/26/26 26/25/25 28/27/27 185/28/28
f 185/28/28 28/27/27 30/29/29 186/30/30
f 186/30/30 30/29/29 32/31/31 187/32/32
f 187/32/32 32/31/31 34/33/33 188/34/34
f 188/34/34 34/33/33 36/35/35 189/36/36
f 189/36/36 36/35/35 38/37/37 190/38/38
f 190/38/38 38/37/37 2/2/2 172/1/1
f 208/39/39 171/40/40 39/41/41 209/42/42
f 171/40/40 170/43/43 40/44/44 39/41/41
f 170/43/43 169/45/45 41/46/46 40/44/44
f 169/45/45 168/47/47 42/48/48 41/46/46
f 168/49/47 167/50/49 43/51/50 42/52/48
f 167/50/49 166/53/51 44/54/52 43/51/50
f 166/53/51 165/55/53 45/56/54 44/54/52
f 207/57/55 164/58/56 171/40/40 208/39/39
f 164/58/56 163/59/57 170/43/43 171/40/40
f 163/59/57 162/60/58 169/45/45 170/43/43
f 162/60/58 161/61/59 168/47/47 169/45/45
f 161/62/59 160/63/60 167/50/49 168/49/47
f 160/63/60 159/64/61 166/53/51 167/50/49
f 159/64/61 158/65/62 165/55/53 166/53/51
f 206/66/63 157/67/64 164/58/56 207/57/55
f 157/67/64 156/68/65 163/59/57 164/58/56
f 156/68/65 155/69/66 162/60/58 163/59/57
f 155/69/66 154/70/67 161/61/59 162/60/58
f 154/71/67 153/72/68 160/63/60 161/62/59
f 153/72/68 152/73/69 159/64/61 160/63/60
f 152/73/69 151/74/70 158/65/62 159/64/61
f 205/75/71 150/76/72 157/67/64 206/66/63
f 150/76/72 149/77/73 156/68/65 157/67/64
f 149/77/73 148/78/74 155/69/66 156/68/65
f 148/78/74 147/79/75 154/70/67 155/69/66
f 147/80/75 146/81/76 153/72/68 154/71/67
f 146/81/76 145/82/77 152/73/69 153/72/68
f 145/82/77 144/83/78 151/74/70 152/73/69
f 204/84/79 143/85/80 150/76/72 205/75/71
f 143/85/80 142/86/81 149/77/73 150/76/72
f 142/86/81 141/87/82 148/78/74 149/77/73
f 141/87/82 140/88/83 147/79/75 148/78/74
f 140/89/83 139/90/84 146/81/76 147/80/75
f 139/90/84 138/91/85 145/82/77 146/81/76
f 138/91/85 137/92/86 144/83/78 145/82/77
f 203/93/87 136/94/88 143/85/80 204/84/79
f 136/94/88 135/95/89 142/86/81 143/85/80
f 135/95/89 134/96/90 141/87/82 142/86/81
f 134/96/90 133/97/91 140/88/83 141/87/82
f 133/98/91 132/99/92 139/90/84 140/89/83
f 132/99/92 131/100/93 138/91/85 139/90/84
f 131/100/93 130/101/94 137/92/86 138/91/85
f 202/102/95 129/103/96 136/94/88 203/93/87
f 129/103/96 128/104/97 135/95/89 136/94/88
f 128/104/97 127/105/98 134/96/90 135/95/89
f 127/105/98 126/106/99 133/97/91 134/96/90
f 126/107/99 125/108/100 132/99/92 133/98/91
f 125/108/100 124/109/101 131/100/93 132/99/92
f 124/109/101 123/110/102 130/101/94 131/100/93
f 201/111/103 122/112/104 129/103/96 202/102/95
f 122/112/104 121/113/105 128/104/97 129/103/96
f 121/113/105 120/114/106 127/105/98 128/104/97
f 120/114/106 119/115/107 126/106/99 127/105/98
f 119/116/107 118/117/108 125/108/100 126/107/99
f 118/117/108 117/118/109 124/109/101 125/108/100
f 117/118/109 116/119/110 123/110/102 124/109/101
f 200/120/111 115/121/112 122/112/104 201/111/103
f 115/121/112 114/122/113 121/113/105 122/112/104
f 114/122/113 113/123/114 120/114/106 121/113/105
f 113/123/114 112/124/115 119/115/107 120/114/106
f 112/125/115 111/126/116 118/117/108 119/116/107
f 111/126/116 110/127/117 117/118/109 118/117/108
f 110/127/117 109/128/118 116/119/110 117/118/109
f 199/129/119 108/130/120 115/121/112 200/120/111
f 108/130/120 107/131/121 114/122/113 115/121/112
f 107/131/121 106/132/122 113/123/114 114/122/113
f 106/132/122 105/133/123 112/124/115 113/123/114
f 105/134/123 104/135/124 111/126/116 112/125/115
f 104/135/124 103/136/125 110/127/117 111/126/116
f 103/136/125 102/137/126 109/128/118 110/127/117
f 198/138/127 101/139/128 108/130/120 199/129/119
f 101/139/128 100/140/129 107/131/121 108/130/120
f 100/140/129 99/141/130 106/132/122 107/131/121
f 99/141/130 98/142/131 105/133/123 106/132/122
f 98/143/131 97/144/132 104/135/124 105/134/123
f 97/144/132 96/145/133 103/136/125 104/135/124
f 96/145/133 95/146/134 102/137/126 103/136/125
f 197/147/135 94/148/136 101/139/128 198/138/127
f 94/148/136 93/149/137 100/140/129 101/139/128
f 93/149/137 92/150/138 99/141/130 100/140/129
f 92/150/138 91/151/139 98/142/131 99/141/130
f 91/152/139 90/153/140 97/144/132 98/143/131
f 90/153/140 89/154/141 96/145/133 97/144/132
f 89/154/141 88/155/142 95/146/134 96/145/133
f 196/156/143 87/157/144 94/148/136 197/147/135
f 87/157/144 86/158/145 93/149/137 94/148/136
f 86/158/145 85/159/146 92/150/138 93/149/137
f 85/159/146 84/160/147 91/151/139 92/150/138
f 84/161/147 83/162/148 90/153/140 91/152/139
f 83/162/148 82/163/149 89/154/141 90/153/140
f 82/163/149 81/164/150 88/155/142 89/154/141
f 195/165/151 80/166/152 87/157/144 196/156/143
f 80/166/152 79/167/153 86/158/145 87/157/144
f 79/167/153 78/168/154 85/159/146 86/158/145
f 78/168/154 77/169/155 84/160/147 85/159/146
f 77/170/155 76/171/156 83/162/148 84/161/147
f 76/171/156 75/172/157 82/163/149 83/162/148
f 75/172/157 74/173/158 81/164/150 82/163/149
f 194/174/159 73/175/160 80/166/152 195/165/151
f 73/175/160 72/176/161 79/167/153 80/166/152
f 72/176/161 71/177/162 78/168/154 79/167/153
f 71/177/162 70/178/163 77/169/155 78/168/154
f 70/179/163 69/180/164 76/171/156 77/170/155
f 69/180/164 68/181/165 75/172/157 76/171/156
f 68/181/165 67/182/166 74/173/158 75/172/157
f 193/183/167 66/184/168 73/175/160 194/174/159
f 66/184/168 65/185/169 72/176/161 73/175/160
f 65/185/169 64/186/170 71/177/162 72/176/161
f 64/186/170 63/187/171 70/178/163 71/177/162
f 63/188/171 62/189/172 69/180/164 70/179/163
f 62/189/172 61/190/173 68/181/165 69/180/164
f 61/190/173 60/191/174 67/182/166 68/181/165
f 192/192/175 59/193/176 66/184/168 193/183/167
f 59/193/176 58/194/177 65/185/169 66/184/168
f 58/194/177 57/195/178 64/186/170 65/185/169
f 57/195/178 56/196/179 63/187/171 64/186/170
f 56/197/179 55/198/180 62/189/172 63/188/171
f 55/198/180 54/199/181 61/190/173 62/189/172
f 54/199/181 53/200/182 60/191/174 61/190/173
f 209/42/42 39/41/41 52/201/183 191/202/184
f 39/41/41 40/44/44 51/203/185 52/201/183
f 40/44/44 41/46/46 50/204/186 51/203/185
f 41/46/46 42/48/48 49/205/187 50/204/186
f 42/52/48 43/51/50 48/206/188 49/207/187
f 43/51/50 44/54/52 47/208/189 48/206/188
f 44/54/52 45/56/54 46/209/190 47/208/189
f 165/55/53 190/38/38 172/1/1 45/56/54
f 158/65/62 189/36/36 190/38/38 165/55/53
f 151/74/70 188/34/34 189/36/36 158/65/62
f 144/83/78 187/32/32 188/34/34 151/74/70
f 137/92/86 186/30/30 187/32/32 144/83/78
f 130/101/94 185/28/28 186/30/30 137/92/86
f 123/110/102 184/26/26 185/28/28 130/101/94
f 116/119/110 183/24/24 184/26/26 123/110/102
f 109/128/118 182/22/22 183/24/24 116/119/110
f 102/137/126 181/20/20 182/22/22 109/128/118
f 95/146/134 180/18/18 181/20/20 102/137/126
f 88/155/142 179/16/16 180/18/18 95/146/134
f 81/164/150 178/14/14 179/16/16 88/155/142
f 74/173/158 177/12/12 178/14/14 81/164/150
f 67/182/166 176/10/10 177/12/12 74/173/158
f 60/191/174 175/8/8 176/10/10 67/182/166
f 53/200/182 174/5/5 175/8/8 60/191/174
f 45/56/54 172/1/1 173/4/4 46/209/190
f 1/210/191 209/42/42 191/202/184 3/211/192
f 5/212/193 192/192/175 193/183/167 7/213/194
f 7/213/194 193/183/167 194/174/159 9/214/195
f 9/214/195 194/174/159 195/165/151 11/215/196
f 11/215/196 195/165/151 196/156/143 13/216/197
f 13/216/197 196/156/143 197/147/135 15/217/198
f 15/217/198 197/147/135 198/138/127 17/218/199
f 17/218/199 198/138/127 199/129/119 19/219/200
f 19/219/200 199/129/119 200/120/111 21/220/201
f 21/220/201 200/120/111 201/111/103 23/221/202
f 23/221/202 201/111/103 202/102/95 25/222/203
f 25/222/203 202/102/95 203/93/87 27/223/204
f 27/223/204 203/93/87 204/84/79 29/224/205
f 29/224/205 204/84/79 205/75/71 31/225/206
f 31/225/206 205/75/71 206/66/63 33/226/207
f 33/226/207 206/66/63 207/57/55 35/227/208
f 35/227/208 207/57/55 208/39/39 37/228/209
f 37/228/209 208/39/39 209/42/42 1/210/191
